<svg width="343" height="27" viewBox="0 0 343 27" fill="none" xmlns="http://www.w3.org/2000/svg">
<path d="M8.22544e-05 26.2852V0.545155H10.9591C12.3891 0.545155 13.6891 0.662155 14.8591 0.896155C16.0291 1.10416 17.0561 1.42916 17.9401 1.87115C18.8501 2.28716 19.6171 2.80716 20.2411 3.43116C20.8651 4.02916 21.3331 4.73116 21.6451 5.53716C21.9571 6.31716 22.1131 7.18815 22.1131 8.15015C22.1131 9.06016 21.9701 9.87916 21.6841 10.6072C21.3981 11.3352 20.9561 11.9722 20.3581 12.5182C19.7861 13.0642 19.0581 13.5062 18.1741 13.8442C17.2901 14.1822 16.2631 14.4292 15.0931 14.5852V15.1702C16.5751 15.3262 17.7191 15.6642 18.5251 16.1842C19.3571 16.6782 19.9941 17.3412 20.4361 18.1732C20.8781 19.0052 21.2681 20.0062 21.6061 21.1762L23.0881 26.2852H16.1071L14.9761 21.5662C14.7421 20.5262 14.4171 19.7202 14.0011 19.1482C13.6111 18.5762 13.1041 18.1862 12.4801 17.9782C11.8561 17.7442 11.0761 17.6272 10.1401 17.6272H6.27908V26.2852H8.22544e-05ZM6.27908 12.9862H10.5301C12.1161 12.9862 13.3511 12.6742 14.2351 12.0502C15.1191 11.4262 15.5611 10.4512 15.5611 9.12516C15.5611 7.82516 15.1581 6.86316 14.3521 6.23916C13.5461 5.61516 12.3241 5.30315 10.6861 5.30315H6.27908V12.9862ZM24.468 26.2852L33.204 0.545155H42.408L51.144 26.2852H44.28L38.118 5.45915H37.494L31.332 26.2852H24.468ZM29.655 21.4492V17.2372H46.893V21.4492H29.655ZM53.9877 26.2852V0.545155H60.2667V26.2852H53.9877ZM57.0687 17.1202V12.0112H72.1617V17.1202H57.0687ZM57.0687 5.88816V0.545155H73.5657V5.88816H57.0687ZM72.9712 26.2852L81.7072 0.545155H90.9112L99.6472 26.2852H92.7832L86.6212 5.45915H85.9972L79.8352 26.2852H72.9712ZM78.1582 21.4492V17.2372H95.3962V21.4492H78.1582ZM102.491 26.2852V0.545155H108.809V26.2852H102.491ZM107.054 26.2852V21.2152H122.927V26.2852H107.054ZM107.054 15.5992V11.0362H120.938V15.5992H107.054ZM107.054 5.57616V0.545155H122.81V5.57616H107.054ZM126.742 26.2852V0.545155H133.021V26.2852H126.742ZM127.873 26.2852V21.0202H143.512V26.2852H127.873ZM154.489 26.2852V0.545155H162.64L173.677 17.8222H174.145L173.755 0.545155H179.878V26.2852H172.507L160.69 8.03316H160.261L160.612 26.2852H154.489ZM196.259 26.8312C194.387 26.8312 192.697 26.5452 191.189 25.9732C189.681 25.4012 188.381 24.5562 187.289 23.4382C186.223 22.3202 185.404 20.9422 184.832 19.3042C184.26 17.6402 183.974 15.7162 183.974 13.5322C183.974 10.4642 184.507 7.94216 185.573 5.96616C186.665 3.96415 188.16 2.46915 190.058 1.48115C191.956 0.493155 194.101 -0.000844717 196.493 -0.000844717C198.339 -0.000844717 200.016 0.285155 201.524 0.857156C203.032 1.42915 204.319 2.27415 205.385 3.39216C206.477 4.51016 207.309 5.91416 207.881 7.60416C208.479 9.26816 208.778 11.1922 208.778 13.3762C208.778 15.6382 208.466 17.6142 207.842 19.3042C207.244 20.9682 206.386 22.3592 205.268 23.4772C204.176 24.5952 202.863 25.4402 201.329 26.0122C199.795 26.5582 198.105 26.8312 196.259 26.8312ZM196.454 21.9172C197.728 21.9172 198.794 21.6052 199.652 20.9812C200.536 20.3312 201.199 19.4082 201.641 18.2122C202.109 16.9902 202.343 15.5082 202.343 13.7662C202.343 11.9202 202.109 10.3602 201.641 9.08616C201.173 7.78616 200.484 6.81116 199.574 6.16115C198.69 5.48515 197.598 5.14715 196.298 5.14715C195.05 5.14715 193.984 5.47215 193.1 6.12216C192.242 6.74616 191.579 7.68216 191.111 8.93016C190.643 10.1522 190.409 11.6602 190.409 13.4542C190.409 14.8062 190.539 16.0152 190.799 17.0812C191.085 18.1212 191.475 19.0052 191.969 19.7332C192.463 20.4352 193.087 20.9812 193.841 21.3712C194.621 21.7352 195.492 21.9172 196.454 21.9172ZM212.78 26.2852V0.545155H223.895C225.507 0.545155 226.95 0.688155 228.224 0.974154C229.524 1.23415 230.629 1.65015 231.539 2.22215C232.449 2.76816 233.138 3.48316 233.606 4.36715C234.1 5.22515 234.347 6.25215 234.347 7.44816C234.347 8.46216 234.126 9.34616 233.684 10.1002C233.268 10.8542 232.605 11.4652 231.695 11.9332C230.785 12.4012 229.576 12.7132 228.068 12.8692V13.5322C230.564 13.6882 232.41 14.2862 233.606 15.3262C234.802 16.3662 235.4 17.7702 235.4 19.5382C235.4 21.0462 234.997 22.2942 234.191 23.2822C233.385 24.2702 232.202 25.0242 230.642 25.5442C229.082 26.0382 227.158 26.2852 224.87 26.2852H212.78ZM218.786 21.2932H224.636C226.222 21.2932 227.392 21.0722 228.146 20.6302C228.9 20.1622 229.277 19.4342 229.277 18.4462C229.277 17.3542 228.822 16.5352 227.912 15.9892C227.002 15.4432 225.611 15.1702 223.739 15.1702H218.786V21.2932ZM218.786 11.3482H222.881C224.727 11.3482 226.079 11.1012 226.937 10.6072C227.795 10.0872 228.224 9.32016 228.224 8.30616C228.224 7.31816 227.821 6.60316 227.015 6.16115C226.235 5.69315 225.039 5.45915 223.427 5.45915H218.786V11.3482ZM239.393 26.2852V0.545155H250.352C251.782 0.545155 253.082 0.662155 254.252 0.896155C255.422 1.10416 256.449 1.42916 257.333 1.87115C258.243 2.28716 259.01 2.80716 259.634 3.43116C260.258 4.02916 260.726 4.73116 261.038 5.53716C261.35 6.31716 261.506 7.18815 261.506 8.15015C261.506 9.06016 261.363 9.87916 261.077 10.6072C260.791 11.3352 260.349 11.9722 259.751 12.5182C259.179 13.0642 258.451 13.5062 257.567 13.8442C256.683 14.1822 255.656 14.4292 254.486 14.5852V15.1702C255.968 15.3262 257.112 15.6642 257.918 16.1842C258.75 16.6782 259.387 17.3412 259.829 18.1732C260.271 19.0052 260.661 20.0062 260.999 21.1762L262.481 26.2852H255.5L254.369 21.5662C254.135 20.5262 253.81 19.7202 253.394 19.1482C253.004 18.5762 252.497 18.1862 251.873 17.9782C251.249 17.7442 250.469 17.6272 249.533 17.6272H245.672V26.2852H239.393ZM245.672 12.9862H249.923C251.509 12.9862 252.744 12.6742 253.628 12.0502C254.512 11.4262 254.954 10.4512 254.954 9.12516C254.954 7.82516 254.551 6.86316 253.745 6.23916C252.939 5.61516 251.717 5.30315 250.079 5.30315H245.672V12.9862ZM265.854 26.2852V0.545155H272.172V26.2852H265.854ZM270.417 26.2852V21.2152H286.29V26.2852H270.417ZM270.417 15.5992V11.0362H284.301V15.5992H270.417ZM270.417 5.57616V0.545155H286.173V5.57616H270.417ZM299.714 26.8312C297.608 26.8312 295.71 26.3502 294.02 25.3882C292.33 24.4262 290.991 22.9832 290.003 21.0592C289.041 19.1092 288.56 16.6652 288.56 13.7272C288.56 11.5692 288.833 9.64516 289.379 7.95516C289.951 6.26516 290.796 4.83516 291.914 3.66515C293.032 2.46915 294.397 1.55915 296.009 0.935155C297.647 0.311155 299.532 -0.000844717 301.664 -0.000844717C303.276 -0.000844717 304.732 0.181155 306.032 0.545155C307.358 0.909155 308.502 1.42916 309.464 2.10516C310.426 2.78116 311.167 3.58715 311.687 4.52316C312.233 5.45916 312.519 6.51216 312.545 7.68216L306.617 9.51516C306.591 8.55316 306.344 7.74716 305.876 7.09716C305.408 6.44716 304.784 5.95316 304.004 5.61516C303.224 5.25116 302.353 5.06916 301.391 5.06916C300.039 5.06916 298.895 5.38115 297.959 6.00515C297.049 6.60316 296.347 7.52616 295.853 8.77416C295.385 10.0222 295.151 11.5822 295.151 13.4542C295.151 14.8582 295.281 16.0932 295.541 17.1592C295.827 18.1992 296.243 19.0702 296.789 19.7722C297.335 20.4742 297.998 21.0072 298.778 21.3712C299.584 21.7092 300.533 21.8782 301.625 21.8782C302.717 21.8782 303.653 21.7092 304.433 21.3712C305.239 21.0332 305.876 20.5132 306.344 19.8112C306.812 19.1092 307.059 18.2122 307.085 17.1202H302.522V12.6742H313.325V17.6662V26.2852H309.035L308.957 19.8502H308.177C307.735 21.3582 307.163 22.6322 306.461 23.6722C305.759 24.7122 304.862 25.5052 303.77 26.0512C302.678 26.5712 301.326 26.8312 299.714 26.8312ZM315.83 26.2852L324.566 0.545155H333.77L342.506 26.2852H335.642L329.48 5.45915H328.856L322.694 26.2852H315.83ZM321.017 21.4492V17.2372H338.255V21.4492H321.017Z" fill="#3F5747"/>
</svg>
